<svg width="18" height="20" viewBox="0 0 18 20" fill="none" xmlns="http://www.w3.org/2000/svg">
<path d="M12.6001 8.80006C12.6001 9.75484 12.2208 10.6705 11.5457 11.3456C10.8706 12.0208 9.95491 12.4001 9.00013 12.4001C8.04535 12.4001 7.12968 12.0208 6.45455 11.3456C5.77942 10.6705 5.40013 9.75484 5.40013 8.80006C5.40013 7.84528 5.77942 6.92961 6.45455 6.25448C7.12968 5.57934 8.04535 5.20006 9.00013 5.20006C9.95491 5.20006 10.8706 5.57934 11.5457 6.25448C12.2208 6.92961 12.6001 7.84528 12.6001 8.80006ZM11.4001 8.80006C11.4001 8.16354 11.1473 7.55309 10.6972 7.103C10.2471 6.65292 9.63665 6.40006 9.00013 6.40006C8.36361 6.40006 7.75316 6.65292 7.30308 7.103C6.85299 7.55309 6.60013 8.16354 6.60013 8.80006C6.60013 9.43658 6.85299 10.047 7.30308 10.4971C7.75316 10.9472 8.36361 11.2001 9.00013 11.2001C9.63665 11.2001 10.2471 10.9472 10.6972 10.4971C11.1473 10.047 11.4001 9.43658 11.4001 8.80006ZM14.9401 14.7461C16.5156 13.1698 17.4007 11.0323 17.4007 8.80366C17.4007 6.575 16.5156 4.43756 14.9401 2.86126C14.1603 2.08087 13.2343 1.4618 12.2151 1.03943C11.1958 0.617056 10.1034 0.399658 9.00013 0.399658C7.89687 0.399658 6.80441 0.617056 5.7852 1.03943C4.76599 1.4618 3.83999 2.08087 3.06013 2.86126C1.48464 4.43756 0.599609 6.575 0.599609 8.80366C0.599609 11.0323 1.48464 13.1698 3.06013 14.7461L4.88533 16.5449L7.33693 18.9269L7.49653 19.0685C8.42653 19.8221 9.78853 19.7741 10.6645 18.9269L13.5865 16.0829L14.9401 14.7461ZM3.90613 3.70726C4.57498 3.03811 5.36911 2.5073 6.24315 2.14515C7.1172 1.78299 8.05403 1.59659 9.00013 1.59659C9.94623 1.59659 10.8831 1.78299 11.7571 2.14515C12.6312 2.5073 13.4253 3.03811 14.0941 3.70726C15.4078 5.0218 16.1631 6.79284 16.2024 8.65084C16.2418 10.5088 15.5622 12.3103 14.3053 13.6793L14.0941 13.9001L12.5089 15.4649L9.83293 18.0677L9.72013 18.1637C9.51252 18.3198 9.25972 18.4042 8.99993 18.404C8.74014 18.4037 8.48748 18.319 8.28013 18.1625L8.16853 18.0665L4.59253 14.5805L3.90613 13.9001L3.69493 13.6805C2.43811 12.3115 1.75847 10.51 1.79782 8.65204C1.83717 6.79404 2.59247 5.0218 3.90613 3.70726Z" fill="black" fill-opacity="0.3"/>
</svg>
